<svg width="51" height="50" viewBox="0 0 51 50" fill="none" xmlns="http://www.w3.org/2000/svg">
<path d="M1.12598 11.5009C0.756758 11.6888 0.602618 12.1438 0.781698 12.5172C0.960778 12.8907 1.40526 13.0411 1.77449 12.8533L1.12598 11.5009ZM23.2309 1.93613C23.6001 1.74827 23.7542 1.29324 23.5751 0.919802C23.3961 0.546359 22.9516 0.395917 22.5824 0.583779L23.2309 1.93613ZM1.77449 12.8533L23.2309 1.93613L22.5824 0.583779L1.12598 11.5009L1.77449 12.8533Z" fill="white"/>
<path d="M33.2355 2.01071C33.6497 2.01071 33.9855 1.67493 33.9855 1.26071C33.9855 0.846498 33.6497 0.510712 33.2355 0.510712V2.01071ZM22.9053 2.01071H33.2355V0.510712H22.9053V2.01071Z" fill="white"/>
<path d="M38.7053 11.2327C38.9277 11.5815 39.3868 11.6761 39.7305 11.4441C40.0743 11.2121 40.1726 10.7412 39.9502 10.3925L38.7053 11.2327ZM32.6133 1.68084L38.7053 11.2327L39.9502 10.3925L33.8582 0.840597L32.6133 1.68084Z" fill="white"/>
<path d="M39.7838 10.2172C39.4625 9.95586 38.9977 10.0105 38.7458 10.3393C38.4939 10.6681 38.5501 11.1465 38.8715 11.4079L39.7838 10.2172ZM38.8715 11.4079L48.9378 19.596L49.8501 18.4054L39.7838 10.2172L38.8715 11.4079Z" fill="white"/>
<path d="M50.0598 19.3434C50.2406 18.9707 50.0887 18.5148 49.7205 18.3251C49.3523 18.1354 48.9072 18.2838 48.7263 18.6564L50.0598 19.3434ZM40.2502 36.1227C40.0694 36.4953 40.2213 36.9512 40.5895 37.1409C40.9578 37.3306 41.4029 37.1823 41.5837 36.8096L40.2502 36.1227ZM48.7263 18.6564L40.2502 36.1227L41.5837 36.8096L50.0598 19.3434L48.7263 18.6564Z" fill="white"/>
<path d="M13.8492 48.9731L40.9172 36.4661" stroke="white" stroke-width="1.5" stroke-linecap="round"/>
<path d="M6.75935 40.0406C6.48165 39.7333 6.0142 39.7166 5.71527 40.0034C5.41634 40.2901 5.39913 40.7717 5.67683 41.079L6.75935 40.0406ZM12.8285 48.9934C13.1062 49.3007 13.5737 49.3174 13.8726 49.0306C14.1715 48.7439 14.1887 48.2623 13.911 47.955L12.8285 48.9934ZM5.67683 41.079L12.8285 48.9934L13.911 47.955L6.75935 40.0406L5.67683 41.079Z" fill="white"/>
<path d="M6.21802 40.5598L32.9707 31.008" stroke="white" stroke-width="1.5"/>
<path d="M32.9705 31.0079L40.9168 36.4661" stroke="white" stroke-width="1.5"/>
<path d="M32.259 30.7705C32.1347 31.1655 32.3524 31.5921 32.7454 31.7232C33.1384 31.8544 33.5577 31.6404 33.6821 31.2454L32.259 30.7705ZM38.6161 10.5751L32.259 30.7705L33.6821 31.2454L40.0392 11.05L38.6161 10.5751Z" fill="white"/>
<path d="M5.52504 40.2724C5.37413 40.658 5.56204 41.0993 5.94476 41.258C6.32748 41.4168 6.76008 41.2328 6.91099 40.8472L5.52504 40.2724ZM6.91099 40.8472L13.5329 23.9268L12.147 23.352L5.52504 40.2724L6.91099 40.8472Z" fill="white"/>
<path d="M2.1439 27.9938C1.99405 27.6078 1.56186 27.4226 1.17859 27.5802C0.795312 27.7377 0.606086 28.1783 0.75594 28.5643L2.1439 27.9938ZM0.75594 28.5643L5.52399 40.8451L6.91195 40.2746L2.1439 27.9938L0.75594 28.5643Z" fill="white"/>
<path d="M1.4502 12.1771L1.4502 28.2787" stroke="white" stroke-width="1.5" stroke-linecap="round"/>
<path d="M1.97977 12.723L13.0302 24.2685" stroke="white" stroke-width="1.5"/>
<path d="M12.5991 23.9718L39.3277 10.8126" stroke="white" stroke-width="1.5"/>
<path d="M1.71486 12.1773L39.3275 10.8126" stroke="white" stroke-width="1.5"/>
</svg>
