<svg width="19" height="19" viewBox="0 0 19 19" fill="none" xmlns="http://www.w3.org/2000/svg">
<path fill-rule="evenodd" clip-rule="evenodd" d="M5.58383 0.056213C6.59567 0.0187375 7.90104 0 9.5 0C11.099 0 12.4043 0.0187375 13.4162 0.056213C14.2781 0.0936885 15.0463 0.243588 15.7209 0.505917C16.3705 0.755754 16.9326 1.11801 17.4073 1.5927C17.882 2.06739 18.2442 2.62952 18.4941 3.27909C18.7564 3.95365 18.9063 4.72189 18.9438 5.58383C18.9813 6.59567 19 7.90104 19 9.5C19 11.099 18.9813 12.4043 18.9438 13.4162C18.9063 14.2781 18.7564 15.0463 18.4941 15.7209C18.2442 16.3705 17.882 16.9326 17.4073 17.4073C16.9326 17.882 16.3705 18.2442 15.7209 18.4941C15.0463 18.7564 14.2781 18.9063 13.4162 18.9438C12.4043 18.9813 11.099 19 9.5 19C7.90104 19 6.59567 18.9813 5.58383 18.9438C4.72189 18.9063 3.95365 18.7564 3.27909 18.4941C2.62952 18.2442 2.06739 17.882 1.5927 17.4073C1.11801 16.9326 0.755754 16.3705 0.505917 15.7209C0.243588 15.0463 0.0936885 14.2781 0.056213 13.4162C0.0187375 12.4043 0 11.099 0 9.5C0 7.90104 0.0187375 6.59567 0.056213 5.58383C0.0936885 4.72189 0.243588 3.95365 0.505917 3.27909C0.755754 2.62952 1.11801 2.06739 1.5927 1.5927C2.06739 1.11801 2.62952 0.755754 3.27909 0.505917C3.95365 0.243588 4.72189 0.0936885 5.58383 0.056213ZM13.5661 1.2929C12.5168 1.25542 11.1614 1.23669 9.5 1.23669C7.83858 1.23669 6.48324 1.25542 5.43392 1.2929C4.75937 1.31788 4.13478 1.43655 3.56016 1.64892C2.66074 2.02367 2.02367 2.66074 1.64892 3.56016C1.43655 4.13478 1.31788 4.75937 1.2929 5.43392C1.25542 6.48324 1.23669 7.83858 1.23669 9.5C1.23669 11.1614 1.25542 12.5168 1.2929 13.5661C1.31788 14.2406 1.43655 14.8652 1.64892 15.4398C2.02367 16.3393 2.66074 16.9763 3.56016 17.3511C4.13478 17.5634 4.75937 17.6821 5.43392 17.7071C6.48324 17.7446 7.83858 17.7633 9.5 17.7633C11.1614 17.7633 12.5168 17.7446 13.5661 17.7071C14.2406 17.6821 14.8652 17.5634 15.4398 17.3511C16.3393 16.9763 16.9763 16.3393 17.3511 15.4398C17.5634 14.8652 17.6821 14.2406 17.7071 13.5661C17.7446 12.5168 17.7633 11.1614 17.7633 9.5C17.7633 7.83858 17.7446 6.48324 17.7071 5.43392C17.6821 4.75937 17.5634 4.13478 17.3511 3.56016C16.9763 2.66074 16.3393 2.02367 15.4398 1.64892C14.8652 1.43655 14.2406 1.31788 13.5661 1.2929ZM6.80177 12.1982C7.55129 12.9352 8.45068 13.3037 9.5 13.3037C10.5493 13.3037 11.4456 12.9321 12.1889 12.1889C12.9321 11.4456 13.3037 10.5493 13.3037 9.5C13.3037 8.45068 12.9321 7.55441 12.1889 6.81114C11.4456 6.06788 10.5493 5.69625 9.5 5.69625C8.45068 5.69625 7.55441 6.06788 6.81114 6.81114C6.06788 7.55441 5.69625 8.45068 5.69625 9.5C5.69625 10.5493 6.06476 11.4487 6.80177 12.1982ZM6.05227 6.05227C7.00165 5.10289 8.15088 4.62821 9.5 4.62821C10.8491 4.62821 11.9984 5.10289 12.9477 6.05227C13.8971 7.00165 14.3718 8.15088 14.3718 9.5C14.3718 10.8491 13.8971 11.9984 12.9477 12.9477C11.9984 13.8971 10.8491 14.3718 9.5 14.3718C8.15088 14.3718 7.00165 13.8971 6.05227 12.9477C5.10289 11.9984 4.62821 10.8491 4.62821 9.5C4.62821 8.15088 5.10289 7.00165 6.05227 6.05227ZM15.3649 3.63511C15.6022 3.85996 15.7209 4.12853 15.7209 4.44083C15.7209 4.75312 15.6085 5.01857 15.3836 5.23718C15.1588 5.45579 14.884 5.56509 14.5592 5.56509C14.2469 5.56509 13.9814 5.45579 13.7628 5.23718C13.5442 5.01857 13.4349 4.75312 13.4349 4.44083C13.4349 4.11604 13.5442 3.84122 13.7628 3.61637C13.9814 3.39152 14.2469 3.27909 14.5592 3.27909C14.8715 3.27909 15.14 3.39776 15.3649 3.63511Z" fill="white"/>
</svg>
