<svg width="41" height="30" viewBox="0 0 41 30" fill="none" xmlns="http://www.w3.org/2000/svg">
<path d="M29.2353 8.22269C29.4375 8.41077 29.4489 8.72715 29.2608 8.92934C29.0727 9.13152 28.7564 9.14296 28.5542 8.95488L29.2353 8.22269ZM11.7262 22.575C11.517 22.3947 11.4936 22.079 11.6739 21.8698C11.8541 21.6607 12.1699 21.6372 12.379 21.8175L11.7262 22.575ZM39.6709 14.0482L40.095 13.7835L39.6709 14.0482ZM39.5913 13.9207L40.0154 13.656L39.5913 13.9207ZM3.49306 20.7639L3.1405 20.4094L3.49306 20.7639ZM3.32556 20.7174L2.84065 20.8393L3.32556 20.7174ZM10.5567 13.522L10.6618 13.0332L10.5567 13.522ZM1.15721 11.5011L1.05211 11.9899L1.05211 11.9899L1.15721 11.5011ZM1.03921 11.6232L0.554296 11.7451L1.03921 11.6232ZM25.0098 19.8404L25.3695 19.4931L25.0098 19.8404ZM15.359 9.84379L15.7187 9.49651L15.359 9.84379ZM22.1507 2.31525L22.4913 1.94916L22.1507 2.31525ZM28.5542 8.95488L21.8102 2.68135L22.4913 1.94916L29.2353 8.22269L28.5542 8.95488ZM15.7187 9.49651L25.3695 19.4931L24.6501 20.1876L14.9992 10.1911L15.7187 9.49651ZM18.2712 28.2155L11.7262 22.575L12.379 21.8175L18.924 27.458L18.2712 28.2155ZM14.3947 5.91105V6.21894H13.3947V5.91105H14.3947ZM27.0263 23.5947V24.2029H26.0263V23.5947H27.0263ZM1.26231 11.0123L10.6618 13.0332L10.4516 14.0108L1.05211 11.9899L1.26231 11.0123ZM10.9587 14.0452L3.84561 21.1185L3.1405 20.4094L10.2536 13.3361L10.9587 14.0452ZM2.84065 20.8393L0.554296 11.7451L1.52412 11.5013L3.81047 20.5955L2.84065 20.8393ZM33.5047 18.0253L33.5937 18.1464L32.7879 18.7386L32.6989 18.6175L33.5047 18.0253ZM39.2467 14.313L39.1671 14.1855L40.0154 13.656L40.095 13.7835L39.2467 14.313ZM39.2031 18.0002C39.9364 16.8851 39.9534 15.4451 39.2467 14.313L40.095 13.7835C41.0085 15.2469 40.9865 17.1082 40.0387 18.5496L39.2031 18.0002ZM33.5937 18.1464C35.0038 20.0652 37.8949 19.9899 39.2031 18.0002L40.0387 18.5496C38.3476 21.1215 34.6106 21.2189 32.7879 18.7386L33.5937 18.1464ZM32.5109 13.656C34.2429 10.8811 38.2834 10.8811 40.0154 13.656L39.1671 14.1855C37.8267 12.038 34.6996 12.038 33.3592 14.1855L32.5109 13.656ZM3.84561 21.1185C3.5157 21.4465 2.9541 21.2905 2.84065 20.8393L3.81047 20.5955C3.73484 20.2947 3.36044 20.1907 3.1405 20.4094L3.84561 21.1185ZM10.6618 13.0332C11.1272 13.1333 11.2963 13.7095 10.9587 14.0452L10.2536 13.3361C10.0286 13.5599 10.1413 13.9441 10.4516 14.0108L10.6618 13.0332ZM1.05211 11.9899C1.34187 12.0522 1.59638 11.7888 1.52412 11.5013L0.554296 11.7451C0.4459 11.314 0.827664 10.9188 1.26231 11.0123L1.05211 11.9899ZM27.0263 24.2029C27.0263 27.1284 24.6547 29.5 21.7292 29.5V28.5C24.1024 28.5 26.0263 26.5761 26.0263 24.2029H27.0263ZM18.924 27.458C19.704 28.1302 20.6995 28.5 21.7292 28.5V29.5C20.4599 29.5 19.2327 29.0442 18.2712 28.2155L18.924 27.458ZM25.3695 19.4931C26.4323 20.594 27.0263 22.0644 27.0263 23.5947H26.0263C26.0263 22.3236 25.5329 21.1021 24.6501 20.1876L25.3695 19.4931ZM14.9992 10.1911C13.97 9.12492 13.3947 7.70086 13.3947 6.21894H14.3947C14.3947 7.44174 14.8694 8.61679 15.7187 9.49651L14.9992 10.1911ZM18.8058 1.5C16.3696 1.5 14.3947 3.47489 14.3947 5.91105H13.3947C13.3947 2.92261 15.8173 0.5 18.8058 0.5V1.5ZM33.3592 14.1855C32.617 15.3745 32.6746 16.8958 33.5047 18.0253L32.6989 18.6175C31.6264 17.1581 31.5519 15.1923 32.5109 13.656L33.3592 14.1855ZM21.8102 2.68135C20.994 1.92208 19.9205 1.5 18.8058 1.5V0.5C20.1733 0.5 21.49 1.01776 22.4913 1.94916L21.8102 2.68135Z" fill="white"/>
</svg>
