<svg width="69" height="50" viewBox="0 0 69 50" fill="none" xmlns="http://www.w3.org/2000/svg">
<path d="M49.1052 13.28C49.508 13.6579 49.5282 14.2907 49.1504 14.6935C48.7725 15.0963 48.1397 15.1165 47.7369 14.7387L49.1052 13.28ZM19.1335 38.0912C18.7167 37.729 18.6724 37.0974 19.0347 36.6805C19.3969 36.2636 20.0286 36.2194 20.4454 36.5816L19.1335 38.0912ZM55.6929 30.8582L56.501 30.2693L55.6929 30.8582ZM66.6332 23.1951L67.4835 22.6687L66.6332 23.1951ZM5.15133 34.9681L4.44325 34.262L5.15133 34.9681ZM4.98349 34.9217L4.01319 35.1636L4.98349 34.9217ZM17.3738 22.4939L17.5857 21.5166L17.3738 22.4939ZM1.15711 18.978L0.945221 19.9553L1.15711 18.978ZM1.03889 19.0999L0.0685883 19.3418L1.03889 19.0999ZM30.9135 47.0038L30.2576 47.7586L30.9135 47.0038ZM41.8174 33.2985L42.5397 32.607L41.8174 33.2985ZM55.5432 30.6529L56.3514 30.0639L55.5432 30.6529ZM47.7369 14.7387L36.2733 3.98516L37.6416 2.52649L49.1052 13.28L47.7369 14.7387ZM26.1319 15.4685L42.5397 32.607L41.095 33.9901L24.6872 16.8516L26.1319 15.4685ZM30.2576 47.7586L19.1335 38.0912L20.4454 36.5816L31.5695 46.249L30.2576 47.7586ZM23.9211 9.33436V9.96227H21.9211V9.33436H23.9211ZM45.3947 39.7176V40.859H43.3947V39.7176H45.3947ZM1.369 18.0007L17.5857 21.5166L17.1619 23.4712L0.945221 19.9553L1.369 18.0007ZM18.1315 23.3684L5.85941 35.6742L4.44325 34.262L16.7153 21.9561L18.1315 23.3684ZM4.01319 35.1636L0.0685883 19.3418L2.00919 18.858L5.95379 34.6798L4.01319 35.1636ZM56.3514 30.0639L56.501 30.2693L54.8847 31.4472L54.7351 31.2418L56.3514 30.0639ZM65.9167 23.9374L65.7829 23.7214L67.4835 22.6687L67.6172 22.8848L65.9167 23.9374ZM65.8449 30.0265C67.0474 28.1824 67.0754 25.8093 65.9167 23.9374L67.6172 22.8848C69.1841 25.4161 69.1463 28.6251 67.5203 31.1189L65.8449 30.0265ZM56.501 30.2693C58.842 33.4815 63.674 33.3559 65.8449 30.0265L67.5203 31.1189C64.5845 35.6212 58.0503 35.7909 54.8847 31.4472L56.501 30.2693ZM54.4112 22.6687C57.4164 17.8138 64.4784 17.8138 67.4835 22.6687L65.7829 23.7214C63.5597 20.1296 58.3351 20.1296 56.1118 23.7214L54.4112 22.6687ZM5.85941 35.6742C5.25495 36.2804 4.22028 35.9942 4.01319 35.1636L5.95379 34.6798C5.78436 34.0002 4.93781 33.7661 4.44325 34.262L5.85941 35.6742ZM17.5857 21.5166C18.4358 21.701 18.7458 22.7525 18.1315 23.3684L16.7153 21.9561C16.2128 22.4601 16.4664 23.3204 17.1619 23.4712L17.5857 21.5166ZM0.945221 19.9553C1.59683 20.0966 2.17049 19.505 2.00919 18.858L0.0685883 19.3418C-0.128548 18.5511 0.572578 17.828 1.369 18.0007L0.945221 19.9553ZM45.3947 40.859C45.3947 45.9074 41.3022 50 36.2537 50V48C40.1976 48 43.3947 44.8028 43.3947 40.859H45.3947ZM31.5695 46.249C32.8688 47.3782 34.5323 48 36.2537 48V50C34.0502 50 31.9208 49.204 30.2576 47.7586L31.5695 46.249ZM42.5397 32.607C44.372 34.5208 45.3947 37.0681 45.3947 39.7176H43.3947C43.3947 37.5835 42.5709 35.5317 41.095 33.9901L42.5397 32.607ZM24.6872 16.8516C22.912 14.9973 21.9211 12.5293 21.9211 9.96227H23.9211C23.9211 12.014 24.713 13.9865 26.1319 15.4685L24.6872 16.8516ZM31.2554 2C27.2048 2 23.9211 5.2837 23.9211 9.33436H21.9211C21.9211 4.17913 26.1002 0 31.2554 0V2ZM56.1118 23.7214C54.8947 25.6876 54.9894 28.1951 56.3514 30.0639L54.7351 31.2418C52.8941 28.7158 52.7661 25.3265 54.4112 22.6687L56.1118 23.7214ZM36.2733 3.98516C34.9137 2.70981 33.1195 2 31.2554 2V0C33.6278 0 35.9113 0.903366 37.6416 2.52649L36.2733 3.98516Z" fill="white"/>
</svg>
