<svg width="42" height="30" viewBox="0 0 42 30" fill="none" xmlns="http://www.w3.org/2000/svg">
<path d="M29.5758 7.8566C29.9802 8.23276 30.0031 8.86552 29.6269 9.26989C29.2508 9.67426 28.618 9.69713 28.2136 9.32097L29.5758 7.8566ZM11.3998 22.9538C10.9814 22.5932 10.9346 21.9618 11.2951 21.5434C11.6557 21.1251 12.2871 21.0782 12.7055 21.4388L11.3998 22.9538ZM39.6709 14.0482L40.5192 13.5187L39.6709 14.0482ZM39.5913 13.9207L40.4396 13.3912L39.5913 13.9207ZM3.49306 20.7639L2.78794 20.0548L3.49306 20.7639ZM3.32556 20.7174L2.35574 20.9612L3.32556 20.7174ZM10.5567 13.522L10.7669 12.5444L10.5567 13.522ZM1.15721 11.5011L0.947006 12.4787L1.15721 11.5011ZM1.03921 11.6232L0.0693855 11.8671L1.03921 11.6232ZM25.0098 19.8404L25.7292 19.1458L25.0098 19.8404ZM15.359 9.84379L16.0784 9.14924L15.359 9.84379ZM22.1507 2.31525L22.8318 1.58307L22.1507 2.31525ZM28.2136 9.32097L21.4696 3.04744L22.8318 1.58307L29.5758 7.8566L28.2136 9.32097ZM16.0784 9.14924L25.7292 19.1458L24.2903 20.5349L14.6395 10.5383L16.0784 9.14924ZM17.9448 28.5943L11.3998 22.9538L12.7055 21.4388L19.2504 27.0792L17.9448 28.5943ZM14.8947 5.91105V6.21894H12.8947V5.91105H14.8947ZM27.5263 23.5947V24.2029H25.5263V23.5947H27.5263ZM1.36741 10.5234L10.7669 12.5444L10.3465 14.4997L0.947006 12.4787L1.36741 10.5234ZM11.3113 14.3998L4.19817 21.473L2.78794 20.0548L9.90105 12.9816L11.3113 14.3998ZM2.35574 20.9612L0.0693855 11.8671L2.00903 11.3794L4.29538 20.4736L2.35574 20.9612ZM33.9076 17.7292L33.9966 17.8503L32.385 19.0347L32.296 18.9135L33.9076 17.7292ZM38.8226 14.5777L38.743 14.4502L40.4396 13.3912L40.5192 13.5187L38.8226 14.5777ZM38.7854 17.7255C39.4113 16.7735 39.4259 15.5442 38.8226 14.5777L40.5192 13.5187C41.536 15.1478 41.5115 17.2197 40.4565 18.8243L38.7854 17.7255ZM33.9966 17.8503C35.2004 19.4884 37.6685 19.4241 38.7854 17.7255L40.4565 18.8243C38.574 21.6873 34.414 21.7957 32.385 19.0347L33.9966 17.8503ZM32.0867 13.3912C34.0145 10.3027 38.5118 10.3027 40.4396 13.3912L38.743 14.4502C37.5983 12.6164 34.928 12.6164 33.7833 14.4502L32.0867 13.3912ZM4.19817 21.473C3.59332 22.0745 2.56372 21.7885 2.35574 20.9612L4.29538 20.4736C4.12522 19.7967 3.28282 19.5627 2.78794 20.0548L4.19817 21.473ZM10.7669 12.5444C11.6202 12.7278 11.9302 13.7844 11.3113 14.3998L9.90105 12.9816C9.39468 13.4851 9.64831 14.3496 10.3465 14.4997L10.7669 12.5444ZM0.947006 12.4787C1.59898 12.6189 2.17162 12.0261 2.00903 11.3794L0.0693855 11.8671C-0.129341 11.0766 0.57056 10.3521 1.36741 10.5234L0.947006 12.4787ZM27.5263 24.2029C27.5263 27.4046 24.9309 30 21.7292 30V28C23.8263 28 25.5263 26.3 25.5263 24.2029H27.5263ZM19.2504 27.0792C19.9397 27.6733 20.8193 28 21.7292 28V30C20.3401 30 18.9971 29.5011 17.9448 28.5943L19.2504 27.0792ZM25.7292 19.1458C26.882 20.3399 27.5263 21.9349 27.5263 23.5947H25.5263C25.5263 22.4531 25.0832 21.3562 24.2903 20.5349L25.7292 19.1458ZM14.6395 10.5383C13.5203 9.37899 12.8947 7.83043 12.8947 6.21894H14.8947C14.8947 7.31218 15.3191 8.36272 16.0784 9.14924L14.6395 10.5383ZM18.8058 2C16.6458 2 14.8947 3.75104 14.8947 5.91105H12.8947C12.8947 2.64647 15.5412 0 18.8058 0V2ZM33.7833 14.4502C33.1496 15.4656 33.1988 16.7647 33.9076 17.7292L32.296 18.9135C31.1022 17.2892 31.0193 15.1012 32.0867 13.3912L33.7833 14.4502ZM21.4696 3.04744C20.7459 2.37423 19.7942 2 18.8058 2V0C20.2996 0 21.7381 0.565605 22.8318 1.58307L21.4696 3.04744Z" fill="black"/>
</svg>
