<svg width="10" height="128" viewBox="0 0 10 128" fill="none" xmlns="http://www.w3.org/2000/svg">
<path d="M9 124.031L1.40625 126.938V126.984C2.00781 126.93 2.72266 126.902 3.55078 126.902H9V127.822H0.433594V126.322L7.5 123.609V123.562L0.433594 120.826V119.338H9V120.334H3.48047C2.84766 120.334 2.16016 120.307 1.41797 120.252V120.299L9 123.229V124.031ZM9 108.598L6.27539 109.664V113.098L9 114.152L9 115.16L0.398438 111.773V110.936L9 107.566V108.598ZM5.37891 109.975L2.72461 110.971C2.38867 111.1 1.97656 111.232 1.48828 111.369C1.86328 111.455 2.27539 111.578 2.72461 111.738L5.37891 112.746V109.975ZM4.63477 96.5508C6.04883 96.5508 7.13086 96.9355 7.88086 97.7051C8.62695 98.4707 9 99.5742 9 101.016V103.389H0.433594V100.764C0.433594 99.4316 0.802734 98.3965 1.54102 97.6582C2.2793 96.9199 3.31055 96.5508 4.63477 96.5508ZM4.66992 97.6055C3.55273 97.6055 2.71094 97.8867 2.14453 98.4492C1.57813 99.0078 1.29492 99.8398 1.29492 100.945V102.393H8.13867V101.18C8.13867 99.9922 7.84766 99.0996 7.26563 98.502C6.67969 97.9043 5.81445 97.6055 4.66992 97.6055ZM9 86.8594V91.6348H0.433594V86.8594H1.31836V90.6387H4.07813V87.0879H4.95703V90.6387H8.10938V86.8594H9ZM0.433594 75.8379V73.418C0.433594 72.2812 0.603516 71.459 0.943359 70.9512C1.2832 70.4434 1.82031 70.1895 2.55469 70.1895C3.0625 70.1895 3.48242 70.332 3.81445 70.6172C4.14258 70.8984 4.35547 71.3105 4.45313 71.8535H4.51172C4.73438 70.5527 5.41797 69.9023 6.5625 69.9023C7.32813 69.9023 7.92578 70.1621 8.35547 70.6816C8.78516 71.1973 9 71.9199 9 72.8496V75.8379H0.433594ZM4.10156 74.8418V73.2012C4.10156 72.498 3.99219 71.9922 3.77344 71.6836C3.55078 71.375 3.17773 71.2207 2.6543 71.2207C2.17383 71.2207 1.82813 71.3926 1.61719 71.7363C1.40234 72.0801 1.29492 72.627 1.29492 73.377V74.8418H4.10156ZM4.94531 74.8418H8.15039V73.0547C8.15039 72.3633 8.01758 71.8438 7.75195 71.4961C7.48242 71.1445 7.0625 70.9688 6.49219 70.9688C5.96094 70.9688 5.57031 71.1484 5.32031 71.5078C5.07031 71.8633 4.94531 72.4062 4.94531 73.1367V74.8418ZM4.7168 62.877L0.433594 60.5918V59.5137L5.67773 62.373H9V63.3809H5.72461L0.433594 66.2344V65.1445L4.7168 62.877ZM6.7207 44.3789C7.47461 44.3789 8.0625 44.6523 8.48438 45.1992C8.90625 45.7461 9.11719 46.4883 9.11719 47.4258C9.11719 48.4414 8.98633 49.2227 8.72461 49.7695H7.76367C7.91211 49.418 8.0293 49.0352 8.11523 48.6211C8.20117 48.207 8.24414 47.7969 8.24414 47.3906C8.24414 46.7266 8.11914 46.2266 7.86914 45.8906C7.61523 45.5547 7.26367 45.3867 6.81445 45.3867C6.51758 45.3867 6.27539 45.4473 6.08789 45.5684C5.89648 45.6855 5.7207 45.8848 5.56055 46.166C5.40039 46.4434 5.21875 46.8672 5.01563 47.4375C4.73047 48.2344 4.39258 48.8047 4.00195 49.1484C3.61133 49.4883 3.10156 49.6582 2.47266 49.6582C1.8125 49.6582 1.28711 49.4102 0.896484 48.9141C0.505859 48.418 0.310547 47.7617 0.310547 46.9453C0.310547 46.0938 0.466797 45.3105 0.779297 44.5957L1.64648 44.9062C1.34961 45.6133 1.20117 46.3008 1.20117 46.9688C1.20117 47.4961 1.31445 47.9082 1.54102 48.2051C1.76758 48.502 2.08203 48.6504 2.48438 48.6504C2.78125 48.6504 3.02539 48.5957 3.2168 48.4863C3.4043 48.377 3.57813 48.1934 3.73828 47.9355C3.89453 47.6738 4.06836 47.2754 4.25977 46.7402C4.58008 45.8418 4.92383 45.2246 5.29102 44.8887C5.6582 44.5488 6.13477 44.3789 6.7207 44.3789ZM9 36.9902V37.9863H1.31836V40.6992H0.433594L0.433594 34.2773H1.31836L1.31836 36.9902H9ZM4.70508 22.5469C6.07617 22.5469 7.1543 22.8945 7.93945 23.5898C8.72461 24.2812 9.11719 25.2441 9.11719 26.4785C9.11719 27.7402 8.73242 28.7148 7.96289 29.4023C7.18945 30.0859 6.09961 30.4277 4.69336 30.4277C3.29883 30.4277 2.21875 30.084 1.45313 29.3965C0.683594 28.709 0.298828 27.7324 0.298828 26.4668C0.298828 25.2363 0.689453 24.2754 1.4707 23.584C2.25195 22.8926 3.33008 22.5469 4.70508 22.5469ZM4.70508 29.373C5.86523 29.373 6.74609 29.127 7.34766 28.6348C7.94531 28.1387 8.24414 27.4199 8.24414 26.4785C8.24414 25.5293 7.94531 24.8125 7.34766 24.3281C6.75 23.8438 5.86914 23.6016 4.70508 23.6016C3.55273 23.6016 2.67969 23.8438 2.08594 24.3281C1.48828 24.8086 1.18945 25.5215 1.18945 26.4668C1.18945 27.416 1.49023 28.1387 2.0918 28.6348C2.68945 29.127 3.56055 29.373 4.70508 29.373ZM9 10.9395V12.0762L1.81055 16.7578V16.8047C2.6543 16.7422 3.42773 16.7109 4.13086 16.7109H9V17.6309H0.433594V16.5059L7.59375 11.8359V11.7891C7.48828 11.7969 7.15039 11.8145 6.58008 11.8418C6.00586 11.8691 5.5957 11.8789 5.34961 11.8711H0.433594V10.9395H9ZM9 0.808594V5.58398H0.433594V0.808594H1.31836V4.58789H4.07813V1.03711H4.95703V4.58789H8.10938V0.808594H9Z" fill="white"/>
</svg>
