<svg width="99" height="19" viewBox="0 0 99 19" fill="none" xmlns="http://www.w3.org/2000/svg">
<g clip-path="url(#clip0)">
<path d="M82.3146 12.8889H99" stroke="white" stroke-width="1.5" stroke-linecap="round" stroke-linejoin="round"/>
<path d="M71.191 5.11111H99" stroke="white" stroke-width="1.5" stroke-linecap="round" stroke-linejoin="round"/>
<path d="M7.07617 13L4.5918 5.8457H4.54492C4.61133 6.9082 4.64453 7.9043 4.64453 8.83398V13H3.37305V4.43359H5.34766L7.72656 11.248H7.76172L10.2109 4.43359H12.1914V13H10.8438V8.76367C10.8438 8.33789 10.8535 7.7832 10.873 7.09961C10.8965 6.41602 10.916 6.00195 10.9316 5.85742H10.8848L8.3125 13H7.07617ZM22.293 13H17.4473V4.43359H22.293V5.61719H18.8477V7.94922H22.0762V9.12109H18.8477V11.8105H22.293V13ZM33.9062 13H32.5V9.13867H28.5508V13H27.1504V4.43359H28.5508V7.9375H32.5V4.43359H33.9062V13ZM50.0312 8.70508C50.0312 10.1035 49.6992 11.1895 49.0352 11.9629C48.375 12.7324 47.4395 13.1172 46.2285 13.1172C45.0684 13.1172 44.1602 12.7715 43.5039 12.0801C42.8516 11.3848 42.4922 10.4043 42.4258 9.13867H40.5625V13H39.1621V4.43359H40.5625V7.9375H42.4492C42.5586 6.76172 42.9375 5.86133 43.5859 5.23633C44.2344 4.61133 45.1152 4.29883 46.2285 4.29883C47.4355 4.29883 48.3711 4.68555 49.0352 5.45898C49.6992 6.23242 50.0312 7.31445 50.0312 8.70508ZM43.873 8.70508C43.873 9.76367 44.0703 10.5645 44.4648 11.1074C44.8594 11.6504 45.4434 11.9219 46.2168 11.9219C47.002 11.9219 47.5898 11.6484 47.9805 11.1016C48.3711 10.5547 48.5664 9.75586 48.5664 8.70508C48.5664 7.64648 48.3691 6.84766 47.9746 6.30859C47.5801 5.76953 47.002 5.5 46.2402 5.5C45.459 5.5 44.8691 5.77148 44.4707 6.31445C44.0723 6.85742 43.873 7.6543 43.873 8.70508Z" fill="white"/>
</g>
<defs>
<clipPath id="clip0">
<rect width="99" height="19" fill="white"/>
</clipPath>
</defs>
</svg>
