<svg width="160" height="62" viewBox="0 0 160 62" fill="none" xmlns="http://www.w3.org/2000/svg">
<path d="M13.7168 16.1172C13.2832 16.1172 12.9023 16.0586 12.5742 15.9414V14.9688C12.9375 15.1367 13.3066 15.2207 13.6816 15.2207C14.1113 15.2207 14.4551 15.123 14.7129 14.9277C14.9746 14.7285 15.2344 14.3574 15.4922 13.8145L12.1582 7.43359H13.2598L15.791 12.3027C15.8887 12.4941 15.9648 12.6816 16.0195 12.8652H16.0664C16.1758 12.5371 16.252 12.3301 16.2949 12.2441L18.3984 7.43359H19.4531L16.7168 13.5625C16.3887 14.293 16.0918 14.8242 15.8262 15.1562C15.5645 15.4883 15.2676 15.7324 14.9355 15.8887C14.6074 16.041 14.2012 16.1172 13.7168 16.1172ZM28.5996 9.4375C28.5996 10 28.4199 10.457 28.0605 10.8086C27.7051 11.1602 27.2129 11.3828 26.584 11.4766V11.5234C27.2988 11.6211 27.8398 11.8457 28.207 12.1973C28.5781 12.5488 28.7637 13.0078 28.7637 13.5742C28.7637 14.375 28.4648 15 27.8672 15.4492C27.2695 15.8945 26.4258 16.1172 25.3359 16.1172C24.3398 16.1172 23.5234 15.9629 22.8867 15.6543V14.7285C23.2617 14.9082 23.666 15.0469 24.0996 15.1445C24.5371 15.2422 24.957 15.291 25.3594 15.291C26.1328 15.291 26.7168 15.1445 27.1113 14.8516C27.5098 14.5586 27.709 14.1367 27.709 13.5859C27.709 13.0625 27.4883 12.666 27.0469 12.3965C26.6094 12.127 25.9551 11.9922 25.084 11.9922H23.8066V11.1543H25.0312C25.832 11.1543 26.4512 11.0117 26.8887 10.7266C27.3301 10.4375 27.5508 10.0352 27.5508 9.51953C27.5508 9.10156 27.3926 8.76758 27.0762 8.51758C26.7598 8.26758 26.334 8.14258 25.7988 8.14258C25.3691 8.14258 24.9805 8.19141 24.6328 8.28906C24.2852 8.38672 23.8828 8.58008 23.4258 8.86914L22.9336 8.20117C23.3281 7.9082 23.7695 7.6875 24.2578 7.53906C24.75 7.38672 25.2598 7.31055 25.7871 7.31055C26.666 7.31055 27.3535 7.50391 27.8496 7.89062C28.3496 8.27344 28.5996 8.78906 28.5996 9.4375ZM40.1074 16H39.1113V11.9688H34.5996V16H33.6035V7.43359H34.5996V11.0781H39.1113V7.43359H40.1074V16ZM50.8477 16L49.7812 13.2754H46.3477L45.293 16H44.2852L47.6719 7.39844H48.5098L51.8789 16H50.8477ZM49.4707 12.3789L48.4746 9.72461C48.3457 9.38867 48.2129 8.97656 48.0762 8.48828C47.9902 8.86328 47.8672 9.27539 47.707 9.72461L46.6992 12.3789H49.4707ZM58.6934 16H57.6973V8.31836H54.9844V7.43359H61.4062V8.31836H58.6934V16ZM71.6133 13.5039C71.6133 14.2969 71.3477 14.9121 70.8164 15.3496C70.2891 15.7832 69.5352 16 68.5547 16H65.7012V7.43359H66.6973V11.0898H68.4023C69.4453 11.0898 70.2402 11.2969 70.7871 11.7109C71.3379 12.1211 71.6133 12.7188 71.6133 13.5039ZM66.6973 15.1387H68.4492C69.8711 15.1387 70.582 14.5938 70.582 13.5039C70.582 12.9766 70.3984 12.5898 70.0312 12.3438C69.668 12.0938 69.084 11.9688 68.2793 11.9688H66.6973V15.1387ZM88.0957 13.5039C88.0957 14.3555 87.8418 14.9844 87.334 15.3906C86.8301 15.7969 86.0684 16 85.0488 16H82.541V7.43359H87.5918V8.31836H83.5371V11.0898H84.8672C85.6211 11.0898 86.2344 11.1777 86.707 11.3535C87.1797 11.5254 87.5293 11.7812 87.7559 12.1211C87.9824 12.4609 88.0957 12.9219 88.0957 13.5039ZM83.5371 15.1387H84.9375C85.6797 15.1387 86.2188 15.0117 86.5547 14.7578C86.8945 14.5039 87.0645 14.0859 87.0645 13.5039C87.0645 12.9492 86.8926 12.5547 86.5488 12.3203C86.2051 12.0859 85.6055 11.9688 84.75 11.9688H83.5371V15.1387ZM100.336 11.7051C100.336 13.0762 99.9883 14.1543 99.293 14.9395C98.6016 15.7246 97.6387 16.1172 96.4043 16.1172C95.1426 16.1172 94.168 15.7324 93.4805 14.9629C92.7969 14.1895 92.4551 13.0996 92.4551 11.6934C92.4551 10.2988 92.7988 9.21875 93.4863 8.45312C94.1738 7.68359 95.1504 7.29883 96.416 7.29883C97.6465 7.29883 98.6074 7.68945 99.2988 8.4707C99.9902 9.25195 100.336 10.3301 100.336 11.7051ZM93.5098 11.7051C93.5098 12.8652 93.7559 13.7461 94.248 14.3477C94.7441 14.9453 95.4629 15.2441 96.4043 15.2441C97.3535 15.2441 98.0703 14.9453 98.5547 14.3477C99.0391 13.75 99.2812 12.8691 99.2812 11.7051C99.2812 10.5527 99.0391 9.67969 98.5547 9.08594C98.0742 8.48828 97.3613 8.18945 96.416 8.18945C95.4668 8.18945 94.7441 8.49023 94.248 9.0918C93.7559 9.68945 93.5098 10.5605 93.5098 11.7051ZM111.346 16H110.35V8.31836H107.566L107.385 9.72461C107.146 11.5957 106.936 12.9648 106.752 13.832C106.572 14.6953 106.334 15.2969 106.037 15.6367C105.74 15.9766 105.346 16.1426 104.854 16.1348C104.564 16.1348 104.305 16.0859 104.074 15.9883V15.1504C104.285 15.252 104.506 15.3027 104.736 15.3027C104.943 15.3027 105.123 15.2188 105.275 15.0508C105.432 14.8789 105.568 14.584 105.686 14.166C105.807 13.7441 105.957 12.9473 106.137 11.7754C106.32 10.5996 106.521 9.15234 106.74 7.43359H111.346V16ZM122.613 13.5039C122.613 14.2969 122.348 14.9121 121.816 15.3496C121.289 15.7832 120.535 16 119.555 16H116.701V7.43359H117.697V11.0898H119.402C120.445 11.0898 121.24 11.2969 121.787 11.7109C122.338 12.1211 122.613 12.7188 122.613 13.5039ZM117.697 15.1387H119.449C120.871 15.1387 121.582 14.5938 121.582 13.5039C121.582 12.9766 121.398 12.5898 121.031 12.3438C120.668 12.0938 120.084 11.9688 119.279 11.9688H117.697V15.1387ZM137.455 16H127.424V7.43359H128.42V15.0977H131.936V7.43359H132.932V15.0977H136.447V7.43359H137.455V16ZM147.586 16H142.811V7.43359H147.586V8.31836H143.807V11.0781H147.357V11.957H143.807V15.1094H147.586V16Z" fill="white"/>
<g clip-path="url(#clip0)">
<path d="M79.8869 4.8125V59.1875V61H81.5869V59.1875V4.8125V3H79.8869V4.8125Z" fill="white"/>
<path d="M80.5 61.5L74.5 55.5" stroke="white" stroke-linecap="square"/>
<path d="M86.5 55.5L80.5 61.5" stroke="white" stroke-linecap="square"/>
</g>
<defs>
<clipPath id="clip0">
<rect width="30" height="17" fill="white" transform="translate(89 32) rotate(90)"/>
</clipPath>
</defs>
</svg>
