<svg width="22" height="17" viewBox="0 0 22 17" fill="none" xmlns="http://www.w3.org/2000/svg">
<path fill-rule="evenodd" clip-rule="evenodd" d="M20 2.78125C19.4615 3.54688 18.8105 4.19922 18.047 4.73828C18.055 4.84766 18.059 5.01172 18.059 5.23047C18.059 6.2461 17.9063 7.25976 17.6009 8.27148C17.2955 9.28321 16.8313 10.2539 16.2084 11.1836C15.5856 12.1133 14.8441 12.9355 13.9841 13.6504C13.1241 14.3652 12.0874 14.9355 10.8737 15.3613C9.6601 15.7871 8.3621 16 6.9797 16C4.8016 16 2.80838 15.4336 1 14.3008C1.2813 14.332 1.59475 14.3477 1.94036 14.3477C3.74874 14.3477 5.36019 13.8086 6.77475 12.7305C5.93083 12.7148 5.17534 12.4629 4.50825 11.9746C3.84116 11.4863 3.38304 10.8633 3.13388 10.1055C3.39911 10.1445 3.64425 10.1641 3.86929 10.1641C4.21489 10.1641 4.55647 10.1211 4.89404 10.0352C3.99386 9.85547 3.24842 9.41993 2.65768 8.72852C2.06694 8.03711 1.77157 7.23438 1.77157 6.32031V6.27344C2.31811 6.57031 2.90482 6.73047 3.53173 6.75391C3.00127 6.41015 2.57932 5.96094 2.26586 5.40625C1.95241 4.85156 1.79569 4.25 1.79569 3.60156C1.79569 2.91406 1.9725 2.27735 2.32614 1.69141C3.29865 2.85547 4.48212 3.78711 5.87659 4.48633C7.27105 5.18555 8.76395 5.57422 10.3553 5.65234C10.291 5.35547 10.2589 5.06641 10.2589 4.78516C10.2589 3.73828 10.6386 2.84571 11.3982 2.10742C12.1577 1.36914 13.0759 1 14.1529 1C15.2781 1 16.2265 1.39843 16.9981 2.19531C17.8742 2.03125 18.698 1.72656 19.4695 1.28125C19.1722 2.17969 18.6015 2.875 17.7576 3.36719C18.5051 3.28906 19.2525 3.09375 20 2.78125Z" stroke="white"/>
</svg>
